<?xml version="1.0" standalone="no"?>
<!DOCTYPE svg PUBLIC "-//W3C//DTD SVG 20010904//EN"
 "http://www.w3.org/TR/2001/REC-SVG-20010904/DTD/svg10.dtd">
<svg version="1.0" xmlns="http://www.w3.org/2000/svg"
 width="717.000000pt" height="566.000000pt" viewBox="0 0 717.000000 566.000000"
 preserveAspectRatio="xMidYMid meet">

<g transform="translate(0.000000,566.000000) scale(0.100000,-0.100000)"
fill="#000000" stroke="none">
<path d="M18 5653 c12 -2 32 -2 45 0 12 2 2 4 -23 4 -25 0 -35 -2 -22 -4z"/>
<path d="M683 5653 c9 -2 23 -2 30 0 6 3 -1 5 -18 5 -16 0 -22 -2 -12 -5z"/>
<path d="M2413 5653 c632 -2 1662 -2 2290 0 628 1 112 2 -1148 2 -1259 0
-1773 -1 -1142 -2z"/>
<path d="M3414 5561 c-197 -19 -446 -71 -558 -117 -33 -13 -63 -24 -68 -24
-16 0 -250 -110 -302 -141 -28 -18 -67 -41 -86 -52 -109 -61 -275 -193 -404
-322 -126 -125 -282 -314 -330 -400 -9 -16 -30 -52 -47 -80 -142 -239 -253
-553 -295 -842 -24 -164 -24 -485 0 -648 35 -239 117 -499 219 -702 50 -99
165 -289 204 -338 13 -16 51 -65 84 -108 72 -94 277 -300 340 -342 24 -16 62
-44 84 -61 44 -34 269 -170 325 -196 120 -55 171 -78 177 -78 4 0 34 -11 68
-25 104 -41 278 -85 445 -112 171 -27 496 -25 690 5 375 56 718 202 1050 446
111 82 329 298 391 388 23 35 48 69 55 76 62 61 245 396 298 543 19 52 39 105
45 119 22 53 61 220 80 346 47 308 35 617 -35 904 -72 299 -221 610 -418 870
-78 104 -327 358 -396 405 -25 17 -72 51 -106 76 -256 192 -628 341 -984 393
-125 19 -413 28 -526 17z m226 -2302 l0 -2042 -127 6 c-133 6 -281 26 -393 53
-352 85 -725 301 -978 568 -440 465 -630 1068 -542 1721 49 359 239 776 470
1030 65 71 214 215 243 234 14 9 61 43 105 76 203 152 451 273 677 329 143 36
333 62 468 64 l77 2 0 -2041z m618 86 l2 -989 27 -28 c15 -15 31 -28 37 -28
27 0 46 -35 46 -85 0 -86 5 -85 -357 -85 -301 0 -307 0 -330 22 -34 32 -33
110 3 135 14 10 38 29 55 41 l29 24 0 868 c0 964 3 924 -64 948 -40 15 -49 36
-44 97 2 30 9 42 33 56 27 16 58 18 295 16 l265 -2 3 -990z m197 985 c3 -5 33
-10 65 -10 32 0 62 -4 65 -10 3 -5 17 -10 31 -10 13 0 24 -4 24 -10 0 -5 5
-10 11 -10 64 0 216 -146 235 -226 4 -16 12 -36 19 -44 35 -44 53 -153 62
-364 3 -77 0 -123 -6 -129 -6 -6 -11 -32 -11 -58 0 -26 -4 -51 -10 -54 -5 -3
-9 -16 -9 -28 1 -37 -7 -56 -88 -201 -14 -25 -100 -106 -112 -106 -4 0 -16 -9
-25 -19 -15 -16 -49 -32 -78 -35 -3 -1 -10 -4 -14 -8 -4 -5 -30 -8 -59 -8 -28
0 -56 -5 -62 -11 -5 -5 -38 -9 -74 -7 l-64 3 -1 70 c-2 51 2 75 14 88 8 9 19
17 23 17 20 0 69 64 69 90 0 16 5 32 10 35 13 8 14 719 1 743 -6 9 -12 29 -15
44 -7 31 -53 89 -68 85 -28 -5 -51 117 -32 167 7 18 88 23 99 6z"/>
<path d="M2226 4309 c-39 -46 -35 -87 14 -144 22 -25 43 -58 46 -73 4 -15 12
-34 19 -42 7 -8 15 -33 19 -55 4 -22 11 -51 15 -65 5 -14 14 -45 22 -70 7 -25
16 -49 21 -54 4 -6 8 -18 8 -29 0 -10 7 -42 16 -70 8 -29 20 -70 26 -92 11
-41 24 -77 39 -107 5 -10 9 -29 9 -43 0 -14 4 -33 9 -43 17 -34 41 -120 41
-146 0 -14 4 -26 8 -26 4 0 13 -21 20 -47 7 -27 24 -83 37 -125 25 -76 25 -84
25 -418 l0 -340 -27 -17 c-16 -9 -40 -28 -55 -41 -24 -22 -27 -30 -22 -71 10
-85 -6 -81 359 -81 l322 0 27 26 c37 37 36 91 -2 127 -15 15 -33 27 -38 27 -6
0 -20 10 -32 23 -21 22 -21 29 -24 437 -3 372 -5 419 -20 449 -10 19 -18 42
-18 52 0 10 -4 21 -10 24 -5 3 -10 15 -10 27 0 21 -26 109 -41 140 -5 10 -9
26 -9 35 0 10 -12 50 -26 88 -14 39 -30 90 -35 114 -11 54 -30 112 -41 126 -4
5 -8 19 -8 31 0 13 -4 26 -10 29 -5 3 -10 16 -10 28 0 12 -7 40 -15 62 -8 22
-14 72 -15 111 0 67 1 71 35 104 47 45 49 102 7 143 l-28 27 -311 0 -311 0
-26 -31z"/>
<path d="M3161 4325 c-23 -13 -51 -62 -51 -91 0 -8 31 -45 69 -82 40 -39 73
-80 77 -97 11 -45 -20 -215 -50 -270 -9 -16 -16 -39 -16 -51 0 -11 -4 -24 -8
-30 -5 -5 -13 -27 -19 -49 -7 -22 -18 -64 -27 -93 -16 -53 -12 -137 5 -148 5
-3 9 -16 9 -30 0 -14 6 -27 14 -30 8 -3 12 -14 8 -27 -3 -13 -1 -18 4 -14 5 5
9 12 10 15 7 40 19 74 30 83 8 6 14 17 14 23 0 6 18 67 41 136 22 69 42 130
43 135 2 6 8 21 14 35 6 14 29 84 52 155 50 153 71 198 106 222 69 48 104 86
104 113 0 37 -24 81 -52 97 -33 18 -344 16 -377 -2z"/>
<path d="M2375 579 c-4 -6 -23 -68 -42 -137 -79 -293 -77 -282 -43 -282 14 0
21 10 26 37 11 67 28 83 84 83 54 0 58 -3 75 -69 8 -35 16 -46 31 -46 24 0 24
-6 -32 220 -42 165 -58 205 -85 205 -4 0 -11 -5 -14 -11z m50 -174 c10 -41 16
-78 13 -81 -12 -12 -56 -13 -71 -1 -14 10 -15 19 -8 47 5 19 15 54 21 78 6 23
15 40 19 37 5 -2 17 -39 26 -80z"/>
<path d="M2744 574 c-37 -18 -54 -51 -54 -105 0 -44 14 -62 93 -116 53 -37 73
-69 63 -107 -19 -76 -107 -75 -131 2 -9 29 -39 25 -43 -6 -2 -15 8 -34 31 -57
29 -29 42 -35 77 -35 34 0 48 6 76 34 29 29 34 41 34 79 0 53 -21 83 -88 128
-59 40 -72 56 -72 89 0 28 32 70 53 70 17 -1 42 -22 56 -47 14 -27 29 -30 38
-7 9 24 -19 66 -54 81 -40 16 -41 16 -79 -3z"/>
<path d="M3075 581 c-7 -12 -13 -374 -7 -409 3 -13 12 -22 23 -22 21 0 22 5
19 102 -3 103 0 108 71 108 39 0 61 -4 64 -12 2 -7 6 -53 7 -103 3 -82 5 -90
23 -90 19 0 20 8 23 213 l2 213 -22 -3 c-21 -3 -23 -9 -28 -88 l-5 -85 -54 -3
c-30 -2 -59 2 -65 8 -6 6 -13 47 -16 92 -5 76 -18 106 -35 79z"/>
<path d="M3879 574 c-7 -9 -9 -82 -7 -216 3 -195 4 -203 23 -203 18 0 20 8 25
90 5 87 6 90 30 93 14 2 41 7 60 12 91 24 101 183 15 224 -40 19 -130 19 -146
0z m117 -30 c42 -11 59 -94 27 -133 -12 -14 -31 -22 -58 -24 l-40 -2 -3 70
c-2 57 0 72 14 82 20 14 29 15 60 7z"/>
<path d="M4335 573 c-9 -24 -97 -374 -99 -393 0 -8 7 -15 18 -15 14 0 23 14
35 55 l17 55 57 1 58 1 16 -58 c12 -45 21 -59 35 -59 24 0 23 9 -13 147 -17
65 -37 145 -45 178 -8 33 -18 70 -24 83 -11 26 -45 29 -55 5z m60 -197 l7 -56
-41 0 c-35 0 -41 3 -41 21 0 19 22 108 37 149 7 21 30 -45 38 -114z"/>
<path d="M4637 584 c-17 -18 -5 -34 26 -34 17 0 38 -4 44 -8 9 -6 13 -61 15
-197 3 -182 4 -190 23 -190 19 0 20 8 23 185 1 102 4 190 7 197 2 6 19 10 37
9 34 -3 50 8 42 29 -5 13 -204 21 -217 9z"/>
<path d="M5066 582 c-6 -10 -8 -79 -7 -270 l1 -163 103 3 c83 2 102 6 102 18
0 12 -18 16 -80 20 l-80 5 0 80 0 80 65 5 c49 4 65 9 65 20 0 11 -16 16 -65
20 l-65 5 0 70 0 70 71 1 c79 2 96 7 87 29 -4 12 -26 15 -98 15 -52 0 -96 -3
-99 -8z"/>
<path d="M5446 574 c-3 -9 -6 -100 -6 -204 0 -104 3 -195 6 -204 5 -13 25 -16
110 -16 97 0 104 1 104 20 0 17 -8 19 -82 22 l-83 3 -3 184 c-2 173 -8 211
-32 211 -4 0 -11 -7 -14 -16z"/>
<path d="M1875 568 c-3 -8 16 -64 44 -126 43 -98 49 -121 53 -196 4 -91 8
-102 33 -93 12 5 15 24 15 90 0 79 3 89 50 193 52 113 60 144 36 144 -17 0
-30 -17 -43 -55 -24 -70 -58 -135 -70 -135 -7 0 -13 5 -13 10 0 10 -49 125
-69 159 -11 21 -30 25 -36 9z"/>
<path d="M0 10 c0 -7 1202 -10 3585 -10 2383 0 3585 3 3585 10 0 7 -1202 10
-3585 10 -2383 0 -3585 -3 -3585 -10z"/>
</g>
</svg>
